<?xml version="1.0" encoding="utf-8"?>
<!-- Generator: Adobe Illustrator 21.0.0, SVG Export Plug-In . SVG Version: 6.00 Build 0)  -->
<svg version="1.1" id="图层_1" xmlns="http://www.w3.org/2000/svg" xmlns:xlink="http://www.w3.org/1999/xlink" x="0px" y="0px"
	 viewBox="0 0 263 69" style="enable-background:new 0 0 263 69;" xml:space="preserve">
<style type="text/css">
	.st0{fill:#FFFFFF;fill-opacity:0;}
	.st1{fill:#FFFFFF;}
	.st2{opacity:0;}
</style>
<title>资源 1</title>
<rect x="0" class="st0" width="263" height="69"/>
<g id="图层_2">
	<g id="图层_1-2">
		<path class="st1" d="M6.6,59.8l2.5,1.8c0,0,8.5-7.1,10.1-8.8c0.7-0.7,4-4.3,4.3-4.8s2.1-2.6,2.4-3c0.3-0.4,0.9-1.4,1.1-1.1
			c0.1,0.2,0.2,0.4,0.3,0.5c0.1,0.3,0.3,0.5,0.5,0.6c0.3,0.3,0.2,0.5,0.1,0.8c-0.4,1.2,0,1.3,0.5,2c0.1,0.2,0.2,0.5,0.1,0.7
			c-0.1,0.5,0,0.9,0.1,1.3c0.1,1.2,0.5,2.3,1.4,3.2c0.4,0.4,0.7,0.7,1,1.2c0.3,0.5,0.5,1.2,0.5,1.7c0.1,0.6,0.3,1.3,0.5,1.9
			c0,0.1,0.1,0.3,0.1,0.4c0,0,0-0.1,0.3-1.4c0.1-0.5,0.1-0.9,0.3-1.4c0.4-1.2,1.2-2.4,1.7-2.5c0.5-0.3,1.1-0.2,1.6,0.1
			c1.1,0.8,2.1,1.8,3.1,2.8c0.5,0.5,0.9,0.8,1.4,1.2c0,0-0.8-1.1-0.4-1.8c0.3-0.4,0.5-0.6,0.9-0.9c0.5-0.5,1.4-0.6,2-0.5
			c0.5,0.2,0.9,0.2,1.4,0.3c0.2,0,0.2-0.6,1.1-1c0.7-0.3,1.5-0.4,2.3-0.1c0.9,0.1,1.9,0.2,2.4,0.4c0.6,0.1,1.4,0.2,1.4,0.2
			c-0.7-0.4-1.4-0.7-2.1-1.2c-0.5-0.4-1.1-0.7-1.5-1.2c-0.5-0.6-0.7-1.4-0.6-2.2c0-0.4,0.1-0.7,0.2-1.1c0.1-0.1,0.1-0.3,0.2-0.5
			c-0.1-0.1-0.3-0.2-0.4-0.2c-0.6-0.3-1.2-0.5-1.7-0.8c1.4-0.3,2.8-0.4,4.3-0.3c0.4,0,0.6,0,1,0.1c0.9,0.1,1.8,0.3,2.7,0.6
			c0.4,0.1,0.7,0.3,1,0.5c0.1,0.1-2-2.1-2.1-2.8c-0.2-0.9-0.4-1.6,2.3-4c0.3-0.3,0.5-0.5,0.8-0.7c1.9-1.7,2.6-2.4,2.8-2.5l0.2-0.2
			c-0.9,0-1.8-0.2-2.6-0.4c-0.5-0.2-0.7-0.5-0.8-1c0-0.2,0-0.5,0.1-0.6c-0.4,0.2-0.8,0.2-1.2,0.1c-0.6-0.1-1.3-0.3-1.8-0.5
			c-1.2-0.8-1.7-1.2-0.5-2.8l0.4-0.5c-1.4,0.8-2.9,1.5-4.4,2.1c-1.6,0.5-3.3,0.7-4.9,0.8c-0.6,0.1-0.9,0.1-0.6-0.5
			c0.2-0.3,0.4-0.5,0.5-0.8c0.9-1.3,2-2.4,3.3-3.4c2.1-1.4,2.5-2,3-2.4c0.5-0.4,1.1-1,1.1-1s-3.4,0.8-3.7-1.6
			c-0.1-0.7,0.7-1.6,1-2.1c0.3-0.5,0.8-1.2,0.8-1.2s-1.4,1.1-1.7,0.4c-0.3-0.8-0.4-1.6-0.5-2.4c0-0.3,0-1,0-1s-1.2,0.9-1.3,0.5
			c0.1-0.8,0.3-1.5,0.5-2.3c0,0-1.4,1.2-2.1,1.1c-0.8,0-1.5-0.5-2-1.1c0,0-1.4,2.3-2.6,2.6C37.3,19.5,36,19,35.3,18
			c-0.4-0.5-0.6-1.2-0.9-1.7c-0.2,2.1-0.6,4.2-1.3,6.2c-0.9,2.6-1.6,4.9-1.8,4.8c-0.4-0.1-0.5-1.8-0.3-3.8c0.4-1.8,0.8-3.6,1.4-5.3
			c-0.3,0.2-0.5,0.4-0.8,0.5c-0.3,0.1-1.5,0.6-2,0.1c-0.7-0.8-1.2-1.8-1.4-2.8c0,0-0.5,0.6-1,0.4c-0.5-0.3-1-0.5-1.4-0.9
			c0,0-0.5,0.9-0.7-0.2c-0.1-0.5-0.2-0.8-0.4-1.3c-0.1-0.4-0.2-0.7-0.3-0.9s-0.1-0.3-0.3-0.5c-0.1,0.7-0.3,1.4-0.5,2.1
			c-0.3,0.9-0.6,1.7-1.2,2.4c-0.3,0.4-0.8,0.5-1.3,0.3c0,0,0,2.1-1.1,2.5c-1.6,0.7-2.4,0.3-2.4,0.3c0.4,0.3,0.5,0.6,0.7,1.1
			c0.2,0.6,0.3,1.3,0.3,1.9c0.1,1.3,0.3,2,0.1,2.7s0.2,0.8-0.2,0.6c-0.3-0.1-2.7-0.5-3.6-0.7c-0.9-0.2-1.4,0-3-0.4
			c-0.6-0.3-1.3-0.5-1.9-0.9c-0.3-0.1-0.6-0.1-0.9,0c0.6,0.3,1.2,0.7,1.6,1.2c0.2,0.3,0.3,0.6,0.4,0.9c0.3,0.5,0.5,1.2,0.5,1.9
			c0,0.5-0.3,0.7,0,1.3c0.5,1,0.7,0.9,0.9,1.5c0.2,0.5,0.1,0.9-0.2,1.3c-0.6,0.5-0.4,0.4-1.1,0.5c-0.5,0.2-0.9,0.2-1.3,0.2
			c0.3,0.2,0.5,0.4,0.9,0.5c0.4,0.1,0.7,0.3,1.1,0.5c0.6,0.4,1.2,0.7,1.8,1c0.5,0.3,0.7,0.5,1.6,1.4c0.7,0.6,0.5,0.5,0.2,0.9
			c-0.5,0.7-0.8,0.7-1.5,1.5c-0.6,0.6-1.4,1.2-2.1,1.7c-0.4,0.3-0.7,0.5-1.2,0.5c0,0,0.2,0.2,1.5,0.1c0.3-0.1,0.5-0.1,0.8-0.1
			c0.9,0.1,1.6,0.7,2.5,0.7c1.1,0,1.2,0.5,1.6,0.9c0.3,0.3,1.5,0,1.9-0.1c0.7-0.3,1.5-0.4,2.3-0.3c0.7,0,5-0.5,3.9,1.1
			c-0.9,1.4-1.7,2.6-5.6,6.3c-1.2,1.1-6.3,5.5-7.6,6.4s-4.8,3.2-5.2,3.3H6.6z"/>
		<g class="st2">
			<path class="st1" d="M93.1,24.5h6.5l5.5,17c0.3,1.3,0.6,2.5,0.8,3.9c0.1-1.4,0.3-2.7,0.7-3.9l5.7-17h6.4l4.4,28.9h-5.9L115.1,36
				c-0.2-1.6-0.3-3.1-0.5-4.7c0-0.3,0-0.7,0-1c-0.2,1.6-0.6,3.2-1,4.9l-6,18.5h-3.5l-6-18.5c-0.1-0.3-0.5-2-1-4.9V31
				c0,1.7-0.1,3.4-0.3,5l-2.1,17.4h-5.9L93.1,24.5z"/>
			<path class="st1" d="M128.3,24.5h17v5.2h-10.9v5.9h10.9v5.2h-10.9v12.5h-6.1C128.3,53.3,128.3,24.5,128.3,24.5z"/>
			<path class="st1" d="M175.6,40.2c0.6,2.3,1.2,4.7,1.5,7c0-2.4,0.3-4.7,0.9-7l3.7-15.7h6.1l-7.5,28.9h-5.9L169.3,35
				c-0.5-1.7-0.8-3.5-0.9-5.2c-0.1,1.7-0.3,3.5-0.8,5.2l-5.2,18.4h-5.9l-7.5-28.9h6.1l3.8,16.1c0.5,2.2,0.7,4.3,0.8,6.5
				c0.3-2.3,0.8-4.5,1.5-6.8l4.3-15.7h6L175.6,40.2z"/>
			<path class="st1" d="M193.1,24.5h17v5.2h-10.9v5.9h10.9v5.2h-10.9v7.4h10.9v5.2h-17V24.5z"/>
			<path class="st1" d="M217.3,24.5h5.4c3.9,0,7,0.1,9.5,1.4c2.2,1.3,3.6,3.6,3.5,6.1c0,3.5-2,5.4-6,6.1c4.7,0.7,7,3.1,7,6.9
				c0,2.8-1.4,5.3-3.8,6.6c-2.9,1.6-6.4,1.6-10.9,1.6h-4.7V24.5z M224.8,36.1c3.5,0,5.1-0.8,5.1-3.5c0-2.7-1.5-3.4-5-3.4h-1.5v6.8
				H224.8z M225.9,48.7c3.1,0,4.7-1.4,4.7-4c0-2.4-1.6-3.7-4.6-3.7h-2.5v7.7H225.9z"/>
		</g>
	</g>
</g>
<g>
	<path class="st1" d="M85.9,24.3h7.6l4.6,12.6c0.6,1.7,1.1,3.5,1.6,5.3h0.2c0.6-1.8,1.1-3.7,1.6-5.3l4.5-12.6h7.6v29.2h-6.4v-10
		c0-2.9,0.5-7.3,0.9-10.1H108l-2.4,7L101.6,51h-3.8l-4-10.7l-2.4-7h-0.2c0.4,2.9,0.9,7.2,0.9,10.1v10h-6.3V24.3z"/>
	<path class="st1" d="M122.3,24.3H141v5.8h-11.6v6.4h10v5.8h-10v11.1h-7V24.3z"/>
	<path class="st1" d="M144.8,24.3h7.2l1.8,13.3l1.2,9.3h0.2c0.5-3.1,1.1-6.2,1.7-9.3l3-13.3h5.9l3.1,13.3c0.6,3,1.1,6.1,1.7,9.3h0.2
		c0.4-3.1,0.7-6.2,1.1-9.3l1.9-13.3h6.7l-5.1,29.2h-8.8l-2.6-12.7c-0.5-2.2-0.9-4.6-1.1-6.8h-0.2c-0.4,2.2-0.7,4.6-1.1,6.8
		l-2.6,12.7h-8.7L144.8,24.3z"/>
	<path class="st1" d="M186.3,24.3h18.5v5.8h-11.5v5.4h9.8v5.9h-9.8v6.2h11.9v5.9h-19V24.3z"/>
	<path class="st1" d="M213,24.3h10.2c6,0,10.9,1.6,10.9,7.2c0,2.6-1.5,5.4-3.8,6.3V38c2.9,0.8,5.2,3,5.2,6.9c0,6-5.1,8.6-11.4,8.6
		h-11V24.3z M222.9,35.9c3,0,4.3-1.3,4.3-3.3c0-2.1-1.4-2.9-4.3-2.9H220v6.2H222.9z M223.5,48.1c3.4,0,5.1-1.2,5.1-3.7
		c0-2.4-1.7-3.3-5.1-3.3H220v7.1H223.5z"/>
</g>
</svg>
