<?xml version="1.0" encoding="utf-8"?>
<!-- Generator: Adobe Illustrator 21.0.0, SVG Export Plug-In . SVG Version: 6.00 Build 0)  -->
<svg version="1.1" id="图层_1" xmlns="http://www.w3.org/2000/svg" xmlns:xlink="http://www.w3.org/1999/xlink" x="0px" y="0px"
	 viewBox="0 0 263 69" style="enable-background:new 0 0 263 69;" xml:space="preserve">
<style type="text/css">
	.st0{fill:#FFFFFF;fill-opacity:0;}
	.st1{fill:#2E5A3A;}
	.st2{opacity:0;}
</style>
<rect class="st0" width="263" height="69"/>
<title>资源 1</title>
<g id="图层_2">
	<g id="图层_1-2">
		<path class="st1" d="M6.6,60l2.2,1.6c0,0,7.4-6.1,8.8-7.6c0.6-0.6,3.4-3.8,3.8-4.2c0.3-0.4,1.8-2.3,2-2.6c0.2-0.3,0.8-1.3,0.9-0.9
			c0.1,0.2,0.2,0.3,0.2,0.5c0.1,0.2,0.2,0.4,0.4,0.5c0.2,0.2,0.2,0.4,0.1,0.7c-0.3,1,0,1.1,0.5,1.7c0.1,0.2,0.2,0.4,0.1,0.6
			c-0.1,0.4,0,0.8,0.1,1.1c0.1,1,0.5,2,1.2,2.7c0.3,0.3,0.6,0.6,0.9,1c0.2,0.5,0.4,1,0.5,1.5c0.1,0.5,0.2,1.1,0.5,1.6
			c0,0.1,0.1,0.2,0.1,0.3c0,0,0-0.1,0.2-1.2c0.1-0.4,0.1-0.8,0.2-1.2c0.3-1,1-2,1.5-2.2c0.5-0.2,0.9-0.2,1.4,0.1
			c0.9,0.7,1.8,1.6,2.7,2.4c0.4,0.4,0.8,0.7,1.3,1c0,0-0.7-0.9-0.3-1.6c0.2-0.3,0.5-0.5,0.8-0.8c0.5-0.4,1.2-0.5,1.7-0.4
			c0.4,0.2,0.8,0.2,1.2,0.2c0.2,0,0.2-0.5,0.9-0.9c0.6-0.2,1.3-0.3,2-0.1c0.8,0.1,1.6,0.2,2.1,0.3c0.5,0.1,1.2,0.2,1.2,0.2
			c-0.6-0.3-1.3-0.6-1.8-1c-0.5-0.3-0.9-0.6-1.3-1c-0.4-0.5-0.6-1.2-0.5-1.9c0-0.3,0.1-0.6,0.2-0.9c0.1-0.1,0.1-0.2,0.2-0.4
			c-0.1-0.1-0.2-0.2-0.3-0.2c-0.5-0.2-1-0.5-1.5-0.7c1.3-0.2,2.4-0.3,3.7-0.2c0.3,0,0.5,0,0.9,0.1c0.8,0.1,1.6,0.2,2.4,0.5
			c0.3,0.1,0.6,0.2,0.9,0.4c0.1,0.1-1.7-1.8-1.8-2.4c-0.2-0.8-0.3-1.4,2-3.4c0.2-0.2,0.5-0.5,0.7-0.6c1.6-1.5,2.3-2.1,2.4-2.2
			l0.2-0.2c-0.8,0-1.6-0.2-2.3-0.3c-0.4-0.2-0.6-0.5-0.7-0.9c0-0.2,0-0.4,0.1-0.5c-0.3,0.2-0.7,0.2-1,0.1c-0.5-0.1-1.1-0.2-1.6-0.5
			c-1-0.7-1.5-1-0.4-2.4l0.3-0.4c-1.3,0.7-2.5,1.3-3.8,1.8c-1.4,0.4-2.8,0.6-4.2,0.7c-0.5,0.1-0.8,0.1-0.5-0.4
			c0.2-0.2,0.3-0.5,0.5-0.7c0.8-1.1,1.7-2.1,2.8-2.9c1.8-1.3,2.2-1.7,2.6-2c0.5-0.3,0.9-0.9,0.9-0.9s-2.9,0.7-3.2-1.4
			c-0.1-0.6,0.6-1.4,0.9-1.8c0.2-0.5,0.7-1,0.7-1s-1.3,0.9-1.5,0.3c-0.2-0.7-0.3-1.4-0.4-2.1c0-0.2,0-0.9,0-0.9s-1,0.8-1.1,0.4
			c0.1-0.7,0.2-1.3,0.4-2c0,0-1.2,1-1.8,0.9c-0.7,0-1.3-0.4-1.7-0.9c0,0-1.2,2-2.3,2.3c-1.1,0.2-2.2-0.2-2.8-1.1
			c-0.3-0.5-0.5-1-0.8-1.5c-0.2,1.8-0.5,3.6-1.1,5.3c-0.8,2.3-1.4,4.2-1.6,4.2c-0.3-0.1-0.4-1.6-0.2-3.3c0.3-1.6,0.7-3.1,1.3-4.6
			c-0.2,0.2-0.5,0.3-0.7,0.5c-0.2,0.1-1.3,0.5-1.7,0.1c-0.6-0.7-1-1.6-1.3-2.4c0,0-0.4,0.5-0.9,0.3c-0.4-0.2-0.9-0.5-1.2-0.8
			c0,0-0.5,0.8-0.6-0.2c-0.1-0.4-0.2-0.7-0.3-1.1c-0.1-0.3-0.2-0.6-0.2-0.8c-0.1-0.2-0.1-0.2-0.2-0.4c-0.1,0.6-0.2,1.3-0.4,1.8
			c-0.2,0.8-0.5,1.5-1,2.1c-0.2,0.3-0.7,0.4-1.1,0.2c0,0,0,1.8-0.9,2.2c-1.4,0.6-2.1,0.2-2.1,0.2c0.3,0.2,0.5,0.5,0.6,0.9
			c0.2,0.5,0.2,1.1,0.2,1.6c0.1,1.1,0.2,1.7,0.1,2.4c-0.2,0.6,0.2,0.7-0.2,0.5c-0.2-0.1-2.4-0.5-3.1-0.6c-0.8-0.2-1.2,0-2.6-0.3
			c-0.5-0.2-1.1-0.5-1.6-0.8c-0.2-0.1-0.5-0.1-0.8,0c0.5,0.2,1,0.6,1.4,1c0.2,0.2,0.2,0.5,0.3,0.8c0.2,0.5,0.4,1,0.5,1.6
			c0,0.4-0.2,0.6,0,1.1c0.4,0.9,0.6,0.8,0.8,1.3c0.2,0.4,0.1,0.8-0.2,1.1c-0.5,0.5-0.3,0.3-0.9,0.5c-0.4,0.2-0.8,0.2-1.1,0.2
			c0.2,0.2,0.5,0.3,0.8,0.5c0.3,0.1,0.6,0.2,0.9,0.4c0.5,0.3,1,0.6,1.6,0.9c0.5,0.2,0.6,0.5,1.4,1.3c0.6,0.5,0.4,0.5,0.2,0.8
			c-0.4,0.6-0.7,0.6-1.3,1.3c-0.5,0.5-1.2,1-1.8,1.5c-0.3,0.2-0.6,0.4-1,0.4c0,0,0.2,0.2,1.3,0.1c0.2-0.1,0.5-0.1,0.7-0.1
			c0.8,0.1,1.4,0.6,2.2,0.6c0.9,0,1,0.4,1.4,0.8c0.2,0.2,1.3,0,1.6-0.1c0.6-0.2,1.3-0.3,2-0.2c0.6,0,4.3-0.5,3.4,0.9
			c-0.8,1.2-1.5,2.3-4.9,5.5c-1,0.9-5.5,4.8-6.6,5.6S7.4,59.9,7.1,60H6.6z"/>
		<g class="st2">
			<path class="st1" d="M81.5,29.5h5.6l4.8,14.7c0.3,1.1,0.5,2.2,0.7,3.4c0.1-1.2,0.3-2.3,0.6-3.4l4.9-14.7h5.5l3.8,25h-5.1
				l-1.8-15.1c-0.2-1.4-0.3-2.7-0.4-4.1c0-0.3,0-0.6,0-0.9c-0.2,1.4-0.5,2.8-0.9,4.2l-5.2,16h-3l-5.2-16c-0.1-0.3-0.4-1.7-0.9-4.2
				v0.7c0,1.5-0.1,2.9-0.3,4.3l-1.8,15.1h-5.1L81.5,29.5z"/>
			<path class="st1" d="M111.9,29.5h14.7V34h-9.4v5.1h9.4v4.5h-9.4v10.8h-5.3C111.9,54.4,111.9,29.5,111.9,29.5z"/>
			<path class="st1" d="M152.9,43.1c0.5,2,1,4.1,1.3,6.1c0-2.1,0.3-4.1,0.8-6.1l3.2-13.6h5.3l-6.5,25h-5.1l-4.5-15.9
				c-0.4-1.5-0.7-3-0.8-4.5c-0.1,1.5-0.3,3-0.7,4.5l-4.5,15.9h-5.1l-6.5-25h5.3l3.3,13.9c0.4,1.9,0.6,3.7,0.7,5.6
				c0.3-2,0.7-3.9,1.3-5.9l3.7-13.6h5.2L152.9,43.1z"/>
			<path class="st1" d="M168,29.5h14.7V34h-9.4v5.1h9.4v4.5h-9.4V50h9.4v4.5H168V29.5z"/>
			<path class="st1" d="M189,29.5h4.7c3.4,0,6.1,0.1,8.2,1.2c1.9,1.1,3.1,3.1,3,5.3c0,3-1.7,4.7-5.2,5.3c4.1,0.6,6.1,2.7,6.1,6
				c0,2.4-1.2,4.6-3.3,5.7c-2.5,1.4-5.5,1.4-9.4,1.4H189V29.5z M195.5,39.5c3,0,4.4-0.7,4.4-3s-1.3-2.9-4.3-2.9h-1.3v5.9H195.5z
				 M196.4,50.4c2.7,0,4.1-1.2,4.1-3.5c0-2.1-1.4-3.2-4-3.2h-2.2v6.7H196.4z"/>
		</g>
	</g>
</g>
<g>
	<path class="st1" d="M75.3,29.3h6.6l4,10.9c0.5,1.5,0.9,3.1,1.4,4.6h0.2c0.5-1.6,0.9-3.2,1.4-4.6l3.9-10.9h6.6v25.3h-5.5v-8.7
		c0-2.5,0.5-6.3,0.8-8.8h-0.1l-2.1,6l-3.4,9.2h-3.3l-3.4-9.2l-2-6h-0.1c0.3,2.5,0.8,6.2,0.8,8.8v8.7h-5.4V29.3z"/>
	<path class="st1" d="M106.8,29.3h16.1v5h-10.1v5.5h8.6V45h-8.6v9.6h-6.1V29.3z"/>
	<path class="st1" d="M126.2,29.3h6.2l1.6,11.5l1,8h0.1c0.5-2.7,1-5.4,1.5-8l2.6-11.5h5.1l2.6,11.5c0.5,2.6,1,5.3,1.5,8h0.2
		c0.3-2.7,0.6-5.4,1-8l1.6-11.5h5.8l-4.4,25.3H145l-2.3-11c-0.4-1.9-0.7-4-1-5.9h-0.2c-0.3,1.9-0.6,3.9-1,5.9l-2.2,11h-7.5
		L126.2,29.3z"/>
	<path class="st1" d="M162.1,29.3h16v5h-10V39h8.5v5.1h-8.5v5.4h10.3v5.1h-16.4V29.3z"/>
	<path class="st1" d="M185.2,29.3h8.8c5.2,0,9.4,1.4,9.4,6.3c0,2.2-1.3,4.7-3.3,5.5v0.1c2.5,0.7,4.5,2.6,4.5,5.9
		c0,5.2-4.4,7.5-9.9,7.5h-9.5V29.3z M193.8,39.3c2.6,0,3.7-1.1,3.7-2.9c0-1.8-1.2-2.5-3.7-2.5h-2.5v5.4H193.8z M194.3,49.9
		c2.9,0,4.4-1.1,4.4-3.2c0-2.1-1.5-2.9-4.4-2.9h-3v6.1H194.3z"/>
</g>
</svg>
