<?xml version="1.0" encoding="utf-8"?>
<!-- Generator: Adobe Illustrator 16.0.0, SVG Export Plug-In . SVG Version: 6.00 Build 0)  -->
<!DOCTYPE svg PUBLIC "-//W3C//DTD SVG 1.1//EN" "http://www.w3.org/Graphics/SVG/1.1/DTD/svg11.dtd">
<svg version="1.1" id="图层_1" xmlns="http://www.w3.org/2000/svg" xmlns:xlink="http://www.w3.org/1999/xlink" x="0px" y="0px"
	 width="154.438px" height="144.52px" viewBox="0 0 154.438 144.52" enable-background="new 0 0 154.438 144.52"
	 xml:space="preserve">
<path fill="#2C5A39" d="M4.283,56.203c2.364,0,4.282-1.796,4.283-4.013c0,0,0-0.001,0-0.002V8.029h47.104
	c2.366,0,4.283-1.797,4.283-4.015C59.953,1.797,58.035,0,55.669,0H4.283C1.918,0,0,1.795,0,4.012c0,0.001,0,0.002,0,0.002v48.173
	c0,2.216,1.915,4.014,4.279,4.016C4.28,56.203,4.281,56.203,4.283,56.203z M55.669,136.49H8.565V92.332
	c0-2.218-1.917-4.015-4.283-4.015S0,90.114,0,92.332v48.174c0,2.217,1.915,4.014,4.279,4.014c0.001,0,0.002,0,0.003,0h51.387
	c2.366,0,4.283-1.797,4.283-4.014C59.953,138.287,58.035,136.49,55.669,136.49z M149.881,0H98.494c-2.364,0-4.283,1.797-4.283,4.014
	c0,2.218,1.919,4.015,4.283,4.015h47.104v44.158c0,2.217,1.916,4.016,4.282,4.016c2.367,0,4.282-1.798,4.282-4.016V4.014
	c0.002-2.215-1.911-4.013-4.274-4.014C149.886,0,149.884,0,149.881,0z M149.881,88.317c-2.364-0.001-4.279,1.794-4.282,4.01
	c0,0.001,0,0.003,0,0.005v44.158H98.494c-2.364,0-4.283,1.797-4.283,4.016c0,2.217,1.919,4.014,4.283,4.014h51.387
	c2.364,0.002,4.282-1.793,4.282-4.009c0-0.002,0-0.004,0-0.005V92.332c0.002-2.215-1.911-4.013-4.274-4.015
	C149.886,88.317,149.884,88.317,149.881,88.317z M149.881,68.245H4.283C1.917,68.245,0,70.042,0,72.259
	c0,2.219,1.917,4.017,4.283,4.017h145.598c2.367,0,4.282-1.798,4.282-4.017C154.163,70.042,152.248,68.245,149.881,68.245
	L149.881,68.245z"/>
</svg>
