<?xml version="1.0" encoding="utf-8"?>
<!-- Generator: Adobe Illustrator 16.0.0, SVG Export Plug-In . SVG Version: 6.00 Build 0)  -->
<!DOCTYPE svg PUBLIC "-//W3C//DTD SVG 1.1//EN" "http://www.w3.org/Graphics/SVG/1.1/DTD/svg11.dtd">
<svg version="1.1" id="图层_1" xmlns="http://www.w3.org/2000/svg" xmlns:xlink="http://www.w3.org/1999/xlink" x="0px" y="0px"
	 width="154.438px" height="144.52px" viewBox="0 0 154.438 144.52" enable-background="new 0 0 154.438 144.52"
	 xml:space="preserve">
<path fill="#2C5A39" d="M153.63,106.49L80.016,32.877c-0.634-0.63-1.507-1.019-2.472-1.019c-0.964,0-1.837,0.389-2.471,1.02
	L1.459,106.49c-0.752,0.647-1.225,1.6-1.225,2.663c0,1.936,1.569,3.505,3.505,3.505c1.063,0,2.016-0.473,2.659-1.221l71.129-71.129
	l71.124,71.16c0.609,0.523,1.408,0.843,2.281,0.843c1.936,0,3.505-1.569,3.505-3.505c0-0.873-0.319-1.672-0.847-2.285L153.63,106.49
	z"/>
</svg>
